<svg xmlns="http://www.w3.org/2000/svg" viewBox="0 0 512 512" width="100%" height="100%">
  <defs>
    <!-- Background Gradient -->
    <radialGradient id="bgGrad" cx="50%" cy="50%" r="70%">
      <stop offset="0%" stop-color="#1c0a35" />
      <stop offset="60%" stop-color="#0b0314" />
      <stop offset="100%" stop-color="#020005" />
    </radialGradient>
    
    <!-- Gold Gradient for metal parts -->
    <linearGradient id="goldGrad" x1="0%" y1="0%" x2="100%" y2="100%">
      <stop offset="0%" stop-color="#FFE07D" />
      <stop offset="30%" stop-color="#F5B041" />
      <stop offset="70%" stop-color="#C0392B" />
      <stop offset="100%" stop-color="#D35400" />
    </linearGradient>
    
    <!-- Metallic Gold Highlights -->
    <linearGradient id="goldHighlight" x1="0%" y1="100%" x2="100%" y2="0%">
      <stop offset="0%" stop-color="#F39C12" />
      <stop offset="50%" stop-color="#FCD05F" />
      <stop offset="100%" stop-color="#F39C12" />
    </linearGradient>

    <!-- Purple Nebula Glow -->
    <radialGradient id="purpleGlow" cx="50%" cy="50%" r="50%">
      <stop offset="0%" stop-color="#9b59b6" stop-opacity="0.6"/>
      <stop offset="100%" stop-color="#9b59b6" stop-opacity="0"/>
    </radialGradient>

    <!-- Drop Shadow Filter -->
    <filter id="glow" x="-20%" y="-20%" width="140%" height="140%">
      <feGaussianBlur stdDeviation="8" result="blur" />
      <feComposite in="SourceGraphic" in2="blur" operator="over" />
    </filter>
  </defs>

  <style>
    @keyframes rotate-cw {
      from { transform: rotate(0deg); }
      to { transform: rotate(360deg); }
    }
    @keyframes rotate-ccw {
      from { transform: rotate(0deg); }
      to { transform: rotate(-360deg); }
    }
    @keyframes pulse {
      0%, 100% { opacity: 0.4; }
      50% { opacity: 0.8; }
    }
    @keyframes pulse-glow {
      0%, 100% { filter: drop-shadow(0 0 4px #FCD05F); }
      50% { filter: drop-shadow(0 0 15px #FCD05F); }
    }
    @keyframes sparkle {
      0%, 100% { opacity: 0.3; transform: scale(0.8); }
      50% { opacity: 1; transform: scale(1.2); }
    }
    
    .anim-rotate-cw {
      transform-origin: 256px 256px;
      animation: rotate-cw 60s linear infinite;
    }
    .anim-rotate-ccw {
      transform-origin: 256px 256px;
      animation: rotate-ccw 45s linear infinite;
    }
    .anim-orbit-1 {
      transform-origin: 256px 256px;
      animation: rotate-cw 20s linear infinite;
    }
    .anim-orbit-2 {
      transform-origin: 256px 256px;
      animation: rotate-ccw 35s linear infinite;
    }
    .anim-pulse {
      animation: pulse 8s ease-in-out infinite;
    }
    .anim-star-glow {
      transform-origin: 256px 256px;
      animation: pulse-glow 4s ease-in-out infinite;
    }
    .anim-sparkle-1 {
      transform-origin: 140px 120px;
      animation: sparkle 3s ease-in-out infinite;
    }
    .anim-sparkle-2 {
      transform-origin: 360px 370px;
      animation: sparkle 4s ease-in-out infinite;
    }
  </style>

  <!-- Background -->
  <rect width="512" height="512" fill="url(#bgGrad)"/>
  
  <!-- Cosmic Dust / Nebula -->
  <circle cx="256" cy="256" r="180" fill="url(#purpleGlow)" class="anim-pulse" filter="url(#glow)" />
  
  <!-- Starfield / Galaxy Stars -->
  <g fill="#ffffff" opacity="0.8">
    <circle cx="120" cy="150" r="1.5" />
    <circle cx="380" cy="120" r="1" />
    <circle cx="160" cy="380" r="2" />
    <circle cx="340" cy="390" r="1.2" />
    <circle cx="220" cy="80" r="1.5" />
    <circle cx="280" cy="420" r="2" />
    <circle cx="440" cy="240" r="1" />
    <circle cx="70" cy="280" r="1.5" />
  </g>
  
  <!-- Outer Constellation/Orbital Ring -->
  <circle cx="256" cy="256" r="200" fill="none" stroke="url(#goldHighlight)" stroke-width="1.5" opacity="0.3" stroke-dasharray="10 15" class="anim-rotate-cw" />
  <circle cx="256" cy="256" r="175" fill="none" stroke="url(#goldGrad)" stroke-width="2" opacity="0.6" class="anim-rotate-ccw" />

  <!-- Constellation lines -->
  <g stroke="#FCD05F" stroke-width="1" opacity="0.4" class="anim-rotate-cw">
    <line x1="256" y1="120" x2="330" y2="180" />
    <line x1="330" y1="180" x2="330" y2="280" />
    <line x1="330" y1="280" x2="256" y2="392" />
    <line x1="256" y1="392" x2="182" y2="280" />
    <line x1="182" y1="280" x2="182" y2="180" />
    <line x1="182" y1="180" x2="256" y2="120" />
  </g>

  <!-- Constellation Nodes (Stars) -->
  <g fill="#fff" filter="url(#glow)" class="anim-rotate-cw">
    <circle cx="256" cy="120" r="4" />
    <circle cx="330" cy="180" r="3" />
    <circle cx="330" cy="280" r="3.5" />
    <circle cx="256" cy="392" r="4.5" />
    <circle cx="182" cy="280" r="3" />
    <circle cx="182" cy="180" r="3.5" />
  </g>

  <!-- Inner Astrolabe Ring -->
  <circle cx="256" cy="256" r="140" fill="none" stroke="url(#goldHighlight)" stroke-width="4" filter="url(#glow)" />
  
  <!-- Astrolabe Ticks -->
  <g stroke="url(#goldHighlight)" stroke-width="2" opacity="0.7">
    <line x1="256" y1="116" x2="256" y2="124" />
    <line x1="256" y1="388" x2="256" y2="396" />
    <line x1="116" y1="256" x2="124" y2="256" />
    <line x1="388" y1="256" x2="396" y2="256" />
    <line x1="157" y1="157" x2="163" y2="163" />
    <line x1="355" y1="355" x2="349" y2="349" />
    <line x1="157" y1="355" x2="163" y2="349" />
    <line x1="355" y1="157" x2="349" y2="163" />
  </g>

  <!-- Central Symbol: Elegant "O" Monogram & Galactic Compass -->
  <g class="anim-star-glow">
    <!-- Crescent Moon (Golden) -->
    <path d="M 230,210 A 55,55 0 1,0 230,302 A 45,45 0 1,1 230,210 Z" fill="url(#goldHighlight)" />
    
    <!-- Central Star of the North (Compass Rose) -->
    <path d="M 256,210 L 261,251 L 302,256 L 261,261 L 256,302 L 251,261 L 210,256 L 251,251 Z" fill="url(#goldHighlight)" />
    <!-- Inner white core of the star -->
    <path d="M 256,230 L 258,254 L 282,256 L 258,258 L 256,282 L 254,258 L 230,256 L 254,254 Z" fill="#ffffff" />
  </g>

  <!-- Astrolabe Needle / Pointer -->
  <line x1="256" y1="256" x2="320" y2="192" stroke="url(#goldGrad)" stroke-width="3" class="anim-rotate-ccw" filter="url(#glow)" />
  <polygon points="320,192 312,197 317,205" fill="url(#goldHighlight)" class="anim-rotate-ccw" filter="url(#glow)" />

  <!-- Orbiting Satellites / Planets -->
  <g class="anim-orbit-1">
    <circle cx="340" cy="180" r="6" fill="#FCD05F" filter="url(#glow)" />
  </g>
  <g class="anim-orbit-2">
    <circle cx="160" cy="300" r="4" fill="#a29bfe" filter="url(#glow)" />
  </g>

  <!-- Four Point Stars / Sparkles -->
  <g fill="#ffffff" filter="url(#glow)">
    <!-- Bottom Right Sparkle -->
    <path d="M 360,360 Q 360,370 370,370 Q 360,370 360,380 Q 360,370 350,370 Q 360,370 360,360 Z" class="anim-sparkle-2" />
  </g>
</svg>
